<mxfile host="app.diagrams.net" modified="2023-08-31T19:35:25.850Z" agent="Mozilla/5.0 (Windows NT 10.0; Win64; x64) AppleWebKit/537.36 (KHTML, like Gecko) Chrome/114.0.0.0 YaBrowser/23.7.4.971 Yowser/2.5 Safari/537.36" etag="8F4imBG9JQrDzZ6iwtdA" version="21.1.8" type="device">
  <diagram name="Страница 1" id="3CjqxiMgV2z_fvjbadHI">
    <mxGraphModel dx="1386" dy="791" grid="1" gridSize="10" guides="1" tooltips="1" connect="1" arrows="1" fold="1" page="1" pageScale="1" pageWidth="827" pageHeight="1169" math="0" shadow="0">
      <root>
        <mxCell id="0" />
        <mxCell id="1" parent="0" />
        <mxCell id="PIzSYwNsUnyWY0WGDUwO-1" value="Singleton" style="swimlane;fontStyle=1;align=center;verticalAlign=top;childLayout=stackLayout;horizontal=1;startSize=26;horizontalStack=0;resizeParent=1;resizeParentMax=0;resizeLast=0;collapsible=1;marginBottom=0;whiteSpace=wrap;html=1;" vertex="1" parent="1">
          <mxGeometry x="310" y="100" width="160" height="110" as="geometry" />
        </mxCell>
        <mxCell id="PIzSYwNsUnyWY0WGDUwO-2" value="- intstance:&amp;nbsp;Singleton&lt;br&gt;&amp;nbsp;" style="text;strokeColor=none;fillColor=none;align=left;verticalAlign=top;spacingLeft=4;spacingRight=4;overflow=hidden;rotatable=0;points=[[0,0.5],[1,0.5]];portConstraint=eastwest;whiteSpace=wrap;html=1;" vertex="1" parent="PIzSYwNsUnyWY0WGDUwO-1">
          <mxGeometry y="26" width="160" height="26" as="geometry" />
        </mxCell>
        <mxCell id="PIzSYwNsUnyWY0WGDUwO-3" value="" style="line;strokeWidth=1;fillColor=none;align=left;verticalAlign=middle;spacingTop=-1;spacingLeft=3;spacingRight=3;rotatable=0;labelPosition=right;points=[];portConstraint=eastwest;strokeColor=inherit;" vertex="1" parent="PIzSYwNsUnyWY0WGDUwO-1">
          <mxGeometry y="52" width="160" height="8" as="geometry" />
        </mxCell>
        <mxCell id="PIzSYwNsUnyWY0WGDUwO-4" value="-&amp;nbsp;Singleton()&lt;br&gt;+ static getIntstance():&amp;nbsp;Singleton" style="text;strokeColor=none;fillColor=none;align=left;verticalAlign=top;spacingLeft=4;spacingRight=4;overflow=hidden;rotatable=0;points=[[0,0.5],[1,0.5]];portConstraint=eastwest;whiteSpace=wrap;html=1;" vertex="1" parent="PIzSYwNsUnyWY0WGDUwO-1">
          <mxGeometry y="60" width="160" height="50" as="geometry" />
        </mxCell>
        <mxCell id="PIzSYwNsUnyWY0WGDUwO-5" value="Client" style="html=1;whiteSpace=wrap;" vertex="1" parent="1">
          <mxGeometry x="40" y="130" width="110" height="50" as="geometry" />
        </mxCell>
        <mxCell id="PIzSYwNsUnyWY0WGDUwO-6" value="Use" style="endArrow=open;endSize=12;dashed=1;html=1;rounded=0;" edge="1" parent="1">
          <mxGeometry width="160" relative="1" as="geometry">
            <mxPoint x="150" y="154.5" as="sourcePoint" />
            <mxPoint x="310" y="154.5" as="targetPoint" />
            <mxPoint as="offset" />
          </mxGeometry>
        </mxCell>
        <mxCell id="PIzSYwNsUnyWY0WGDUwO-9" value="" style="endArrow=open;endFill=1;endSize=12;html=1;rounded=0;entryX=0.569;entryY=-0.018;entryDx=0;entryDy=0;entryPerimeter=0;" edge="1" parent="1" target="PIzSYwNsUnyWY0WGDUwO-1">
          <mxGeometry width="160" relative="1" as="geometry">
            <mxPoint x="470" y="190" as="sourcePoint" />
            <mxPoint x="400" y="70" as="targetPoint" />
            <Array as="points">
              <mxPoint x="540" y="190" />
              <mxPoint x="540" y="70" />
              <mxPoint x="401" y="70" />
            </Array>
          </mxGeometry>
        </mxCell>
        <mxCell id="PIzSYwNsUnyWY0WGDUwO-10" value="new" style="edgeLabel;html=1;align=center;verticalAlign=middle;resizable=0;points=[];" vertex="1" connectable="0" parent="PIzSYwNsUnyWY0WGDUwO-9">
          <mxGeometry x="0.3333" y="-1" relative="1" as="geometry">
            <mxPoint as="offset" />
          </mxGeometry>
        </mxCell>
      </root>
    </mxGraphModel>
  </diagram>
</mxfile>
